<svg width="512" height="512" viewBox="0 0 512 512" fill="none" xmlns="http://www.w3.org/2000/svg" role="img" aria-labelledby="title desc">
  <title id="title">Tiger OpenAPI Icon</title>
  <desc id="desc">A tiger badge fused with US-style green-up red-down market signals for Tiger OpenAPI.</desc>

  <defs>
    <linearGradient id="bg" x1="64" y1="32" x2="448" y2="480" gradientUnits="userSpaceOnUse">
      <stop stop-color="#0B1220" />
      <stop offset="1" stop-color="#172036" />
    </linearGradient>
    <linearGradient id="ring" x1="136" y1="112" x2="380" y2="400" gradientUnits="userSpaceOnUse">
      <stop stop-color="#FDBA74" />
      <stop offset="1" stop-color="#F59E0B" />
    </linearGradient>
  </defs>

  <rect x="32" y="32" width="448" height="448" rx="112" fill="url(#bg)" />

  <circle cx="256" cy="256" r="168" fill="#0F172A" stroke="url(#ring)" stroke-width="16" />

  <path d="M256 124L362 192L338 334L256 392L174 334L150 192L256 124Z" fill="#F59E0B" />

  <path d="M198 215L146 191L176 160L216 184L198 215Z" fill="#F59E0B" />
  <path d="M314 184L336 160L366 191L314 215L296 184H314Z" fill="#F59E0B" />

  <path d="M214 231L174 215L204 193L234 206L214 231Z" fill="#111827" opacity="0.75" />
  <path d="M298 206L328 193L358 215L318 231L298 206Z" fill="#111827" opacity="0.75" />

  <path d="M232 288L214 338L256 324L298 338L280 288H232Z" fill="#0F172A" opacity="0.9" />
  <path d="M244 286L256 302L268 286H244Z" fill="#111827" />

  <rect x="178" y="282" width="18" height="50" rx="9" fill="#16A34A" fill-opacity="0.46" />
  <rect x="228" y="260" width="18" height="72" rx="9" fill="#DC2626" fill-opacity="0.46" />
  <rect x="278" y="272" width="18" height="60" rx="9" fill="#16A34A" fill-opacity="0.46" />
  <rect x="328" y="238" width="18" height="94" rx="9" fill="#16A34A" fill-opacity="0.46" />

  <path d="M168 282L220 316" stroke="#EF4444" stroke-width="14" stroke-linecap="round" stroke-linejoin="round" />
  <path d="M220 316L266 286L340 242" stroke="#22C55E" stroke-width="14" stroke-linecap="round" stroke-linejoin="round" />
  <circle cx="168" cy="282" r="8" fill="#BBF7D0" />
  <circle cx="220" cy="316" r="8" fill="#FECACA" />
  <circle cx="266" cy="286" r="8" fill="#BBF7D0" />
  <circle cx="340" cy="242" r="8" fill="#BBF7D0" />
</svg>
